{"title":"19 Kids and Counting - s09e09 - All About Jessa - HDTV 1080","uid":12126201,"size":1679592497,"categoryP":"video","categoryS":"hd___tv_shows","magnet":"?xt=urn:btih:77fc8f606d18de57b7f1df57e8b8db62438210d8&amp;dn=19+Kids+and+Counting+-+s09e09+-+All+About+Jessa+-+HDTV+1080&amp;tr=udp%3A%2F%2Ftracker.openbittorrent.com%3A80&amp;tr=udp%3A%2F%2Fopen.demonii.com%3A1337&amp;tr=udp%3A%2F%2Ftracker.coppersurfer.tk%3A6969&amp;tr=udp%3A%2F%2Fexodus.desync.com%3A6969","seeders":0,"leechers":0,"uploader":null,"files":16,"time":1436928237,"description":"General\n Complete name : 19 Kids and Counting - s09e09 - All About Jessa19 Kids and Counting - s09e09 - All About Jessa.mp4\n Format : MPEG-4\n Format profile : Base Media / Version 2\n Codec ID : mp42\n File size : 1.26 GiB\n Duration : 42mn 25s\n Overall bit rate mode : Variable\n Overall bit rate : 4 252 Kbps\n Encoded date : UTC 2015-04-27 01:30:37\n Tagged date : UTC 2015-04-27 01:30:37\nÂ©TIM : 00;00;00;00\nÂ©TSC : 30000\nÂ©TSZ : 1001\n\n Video\n ID : 1\n Format : AVC\n Format/Info : Advanced Video Codec\n Format profile : &lt;a class=&quot;__cf_email__&quot; href=&quot;/cdn-cgi/l/email-protection&quot; data-cfemail=&quot;8ac7ebe3e4cac6bea4b8&quot;&gt;[email&amp;#160;protected]&lt;/a&gt;&lt;script data-cfhash='f9e31' type=&quot;text/javascript&quot;&gt;\n/* &lt;![CDATA[ */!function(){try{var t=&quot;currentScript&quot;in document?document.currentScript:function(){for(var t=document.getElementsByTagName(&quot;script&quot;),e=t.length;e--;)if(t[e].getAttribute(&quot;data-cfhash&quot;))return t[e]}();if(t&amp;&amp;t.previousSibling){var e,r,n,i,c=t.previousSibling,a=c.getAttribute(&quot;data-cfemail&quot;);if(a){for(e=&quot;&quot;,r=parseInt(a.substr(0,2),16),n=2;a.length-n;n+=2)i=parseInt(a.substr(n,2),16)^r,e+=String.fromCharCode(i);e=document.createTextNode(e),c.parentNode.replaceChild(e,c)}t.parentNode.removeChild(t);}}catch(u){}}()/* ]]&gt; */&lt;/script&gt;\n Format settings, CABAC : Yes\n Format settings, ReFrames : 3 frames\n Codec ID : avc1\n Codec ID/Info : Advanced Video Coding\n Duration : 42mn 25s\n Bit rate : 3 994 Kbps\n Width : 1 920 pixels\n Height : 1 080 pixels\n Display aspect ratio : 16:9\n Frame rate mode : Constant\n Frame rate : 29.970 fps\n Standard : NTSC\n Color space : YUV\n Chroma subsampling : 4:2:0\n Bit depth : 8 bits\n Scan type : Progressive\n Bits/(Pixel*Frame) : 0.064\n Stream size : 1.18 GiB (94%)\n Language : English\n Encoded date : UTC 2015-04-27 01:30:37\n Tagged date : UTC 2015-04-27 01:30:37\n Color range : Limited\n\n Audio\n ID : 2\n Format : AAC\n Format/Info : Advanced Audio Codec\n Format profile : LC\n Codec ID : 40\n Duration : 42mn 25s\n Source duration : 42mn 25s\n Bit rate mode : Variable\n Bit rate : 253 Kbps\n Maximum bit rate : 362 Kbps\n Channel(s) : 2 channels\n Channel positions : Front: L R\n Sampling rate : 48.0 KHz\n Compression mode : Lossy\n Stream size : 76.9 MiB (6%)\n Source stream size : 76.9 MiB (6%)\n Language : English\n Encoded date : UTC 2015-04-27 01:30:37\n Tagged date : UTC 2015-04-27 01:30:37","torrent":{"xt":"urn:btih:77fc8f606d18de57b7f1df57e8b8db62438210d8","amp;dn":"19+Kids+and+Counting+-+s09e09+-+All+About+Jessa+-+HDTV+1080","amp;tr":["udp%3A%2F%2Ftracker.openbittorrent.com%3A80","udp%3A%2F%2Fopen.demonii.com%3A1337","udp%3A%2F%2Ftracker.coppersurfer.tk%3A6969","udp%3A%2F%2Fexodus.desync.com%3A6969"],"infoHash":"77fc8f606d18de57b7f1df57e8b8db62438210d8","infoHashBuffer":{"type":"Buffer","data":[119,252,143,96,109,24,222,87,183,241,223,87,232,184,219,98,67,130,16,216]},"announce":[],"urlList":[]}}